<svg width="32" height="24" viewBox="0 0 32 24" fill="none" xmlns="http://www.w3.org/2000/svg">
<g clip-path="url(#clip0_3_1568)">
<path opacity="0.07" d="M29.4737 0H2.52632C1.09474 0 0 1.3 0 3V21C0 22.7 1.17895 24 2.52632 24H29.4737C30.9053 24 32 22.7 32 21V3C32 1.3 30.8211 0 29.4737 0Z" fill="black"/>
<path d="M29.4737 1C30.4 1 31.1579 1.9 31.1579 3V21C31.1579 22.1 30.4 23 29.4737 23H2.52631C1.6 23 0.842102 22.1 0.842102 21V3C0.842102 1.9 1.6 1 2.52631 1H29.4737Z" fill="#5A31F4"/>
<path d="M18.0059 9.71305C18.0059 11.3811 17.0147 12.5711 15.6303 12.5711H14.3259C14.3043 12.5714 14.2833 12.5792 14.2654 12.5934C14.2475 12.6076 14.2334 12.6276 14.2248 12.6511C14.2193 12.6666 14.2164 12.6832 14.2164 12.7001V14.8921C14.2164 14.9091 14.2136 14.9259 14.208 14.9417C14.2025 14.9574 14.1945 14.9716 14.1843 14.9836C14.1741 14.9956 14.162 15.0051 14.1488 15.0115C14.1355 15.0179 14.1213 15.0212 14.1069 15.0211H13.1941C13.165 15.0211 13.1372 15.0074 13.1167 14.983C13.0961 14.9586 13.0846 14.9255 13.0846 14.8911V6.98605C13.0843 6.9603 13.0905 6.93503 13.1026 6.91359C13.1146 6.89216 13.1318 6.87558 13.152 6.86605C13.1653 6.85943 13.1796 6.85603 13.1941 6.85605H15.6362C17.0147 6.85605 18.0059 8.04505 18.0059 9.71305ZM16.8673 9.71305C16.8673 8.75505 16.3132 8.05505 15.5621 8.05505H14.3259C14.3115 8.05505 14.2973 8.05841 14.284 8.06495C14.2707 8.07148 14.2586 8.08106 14.2485 8.09313C14.2383 8.1052 14.2302 8.11953 14.2247 8.1353C14.2192 8.15108 14.2164 8.16798 14.2164 8.18505V11.2351C14.2162 11.2522 14.219 11.2691 14.2245 11.2849C14.23 11.3007 14.2381 11.3151 14.2484 11.3271C14.2585 11.3392 14.2706 11.3488 14.2839 11.3553C14.2972 11.3618 14.3115 11.3651 14.3259 11.3651H15.5621C16.3132 11.3701 16.8673 10.6701 16.8673 9.71305ZM18.277 13.5041C18.2674 13.2479 18.3123 12.9929 18.4075 12.7627C18.5027 12.5326 18.6452 12.3346 18.8219 12.1871C19.1781 11.8711 19.7347 11.7071 20.5524 11.6731L21.4223 11.6371V11.3341C21.4223 10.7271 21.077 10.4711 20.5229 10.4711C19.9688 10.4711 19.6177 10.7021 19.5377 11.0811C19.5308 11.1077 19.5168 11.1309 19.4978 11.1472C19.4788 11.1634 19.4558 11.1718 19.4324 11.1711H18.5718C18.5481 11.1714 18.5249 11.1626 18.5058 11.1461C18.4867 11.1295 18.4726 11.106 18.4657 11.0791C18.4611 11.0612 18.46 11.0425 18.4623 11.0241C18.5903 10.1261 19.2236 9.44405 20.5625 9.44405C21.9873 9.44405 22.5019 10.2271 22.5019 11.7201V14.8921C22.5018 14.9092 22.4988 14.9262 22.4931 14.942C22.4875 14.9577 22.4792 14.972 22.4689 14.984C22.4586 14.996 22.4464 15.0055 22.4329 15.0118C22.4195 15.0182 22.4052 15.0213 22.3907 15.0211H21.5233C21.4943 15.0211 21.4665 15.0074 21.4459 14.983C21.4254 14.9586 21.4139 14.9255 21.4139 14.8911V14.6551C21.4141 14.6355 21.4094 14.6163 21.4002 14.6C21.391 14.5837 21.3779 14.5712 21.3625 14.5641C21.3473 14.5569 21.3307 14.5552 21.3147 14.5592C21.2987 14.5631 21.284 14.5724 21.2724 14.5861C21.0113 14.9201 20.592 15.1611 19.9191 15.1611C18.9297 15.1611 18.277 14.5541 18.277 13.5041ZM21.4223 12.8171V12.5711L20.2947 12.6411C19.701 12.6771 19.3558 12.9671 19.3558 13.4571C19.3558 13.9011 19.6724 14.1471 20.2265 14.1471C20.9785 14.1471 21.4223 13.6671 21.4223 12.8171ZM23.3726 17.4171V16.4981C23.3728 16.4788 23.3766 16.4598 23.3838 16.4425C23.3909 16.4252 23.4012 16.4101 23.4139 16.3981C23.4265 16.386 23.4411 16.3773 23.4568 16.3726C23.4725 16.3679 23.4889 16.3674 23.5048 16.3711C23.6379 16.4001 23.7726 16.4151 23.9082 16.4151C24.1404 16.4302 24.3702 16.3519 24.5604 16.193C24.7506 16.0341 24.8902 15.8037 24.9566 15.5391L25.013 15.3281C25.0214 15.2996 25.0214 15.2685 25.013 15.2401L23.2067 9.76905C23.1962 9.73903 23.1956 9.70543 23.205 9.67489C23.2143 9.64435 23.233 9.61908 23.2572 9.60405C23.2733 9.59398 23.2913 9.58883 23.3094 9.58905H24.1852C24.2077 9.58912 24.2296 9.59728 24.2481 9.61246C24.2666 9.62763 24.2808 9.64911 24.2888 9.67405L25.5149 13.5331C25.5225 13.559 25.5367 13.5814 25.5556 13.5972C25.5745 13.613 25.5971 13.6213 25.6202 13.6211C25.6432 13.621 25.6657 13.6126 25.6845 13.5968C25.7034 13.5811 25.7177 13.5588 25.7254 13.5331L26.7907 9.68505C26.7979 9.65852 26.8121 9.63545 26.8312 9.61925C26.8504 9.60304 26.8733 9.59456 26.8968 9.59505H27.8029C27.8301 9.59524 27.8563 9.60708 27.8767 9.62839C27.8972 9.64971 27.9104 9.67906 27.9141 9.71105C27.9161 9.73239 27.9138 9.754 27.9073 9.77405L25.9747 15.8501C25.5301 17.2631 24.768 17.6231 23.9284 17.6231C23.7691 17.6283 23.6099 17.606 23.456 17.5571C23.4302 17.5495 23.4075 17.5313 23.392 17.5056C23.3766 17.4799 23.3702 17.4485 23.3726 17.4171ZM7.21682 6.40005C6.06776 6.38985 4.95864 6.90016 4.11534 7.82705C4.07946 7.86581 4.05706 7.91908 4.05254 7.97643C4.04802 8.03378 4.06171 8.09107 4.09092 8.13705L4.61134 8.97605C4.62821 9.00434 4.65011 9.02787 4.6755 9.04498C4.70088 9.06208 4.72913 9.07233 4.75823 9.075C4.78733 9.07768 4.81657 9.07271 4.84387 9.06044C4.87117 9.04818 4.89586 9.02893 4.91618 9.00405C5.21928 8.64665 5.57923 8.36444 5.97508 8.17387C6.37093 7.9833 6.79476 7.88818 7.22187 7.89405C9.00713 7.89405 9.93934 9.47805 9.93934 11.0441C9.93934 12.7441 8.95997 13.9421 7.55197 13.9651C6.46397 13.9651 5.64376 13.1151 5.64376 11.9911C5.6447 11.7068 5.69909 11.4264 5.80297 11.1704C5.90685 10.9143 6.05759 10.6891 6.24418 10.5111C6.28391 10.4724 6.30913 10.4166 6.31434 10.3559C6.31955 10.2952 6.30432 10.2345 6.27197 10.1871L5.72461 9.37205C5.70808 9.34699 5.68746 9.32617 5.66398 9.31082C5.6405 9.29547 5.61464 9.28592 5.58798 9.28275C5.56131 9.27957 5.53437 9.28283 5.50879 9.29234C5.48322 9.30184 5.45952 9.31739 5.43913 9.33805C5.10389 9.65739 4.83288 10.0615 4.64587 10.5211C4.45952 10.9795 4.36253 11.482 4.36208 11.9911C4.36208 13.9261 5.75576 15.4431 7.54103 15.4551H7.56629C9.68587 15.4231 11.2185 13.5711 11.2185 11.0401C11.2185 8.79305 9.81471 6.40005 7.21682 6.40005Z" fill="white"/>
</g>
<defs>
<clipPath id="clip0_3_1568">
<rect width="32" height="24" fill="white"/>
</clipPath>
</defs>
</svg>
